<mxfile host="app.diagrams.net" modified="2021-12-20T06:43:30.400Z" agent="5.0 (Windows NT 10.0; Win64; x64) AppleWebKit/537.36 (KHTML, like Gecko) Chrome/94.0.4606.81 Safari/537.36" etag="jHbWD8rOBXlPGpgwQQYz" version="16.0.0" type="github">
  <diagram id="LsGrZ8x3e2jtfZvhRqZw" name="Page-1">
    <mxGraphModel dx="459" dy="305" grid="0" gridSize="10" guides="1" tooltips="1" connect="1" arrows="1" fold="1" page="1" pageScale="1" pageWidth="827" pageHeight="1169" math="0" shadow="0">
      <root>
        <mxCell id="0" />
        <mxCell id="1" parent="0" />
        <mxCell id="NAV_AkpfNiqwy-9ARSLc-5" value="" style="ellipse;whiteSpace=wrap;html=1;aspect=fixed;fillColor=#3399FF;opacity=50;" vertex="1" parent="1">
          <mxGeometry x="90" y="175" width="150" height="150" as="geometry" />
        </mxCell>
        <mxCell id="NAV_AkpfNiqwy-9ARSLc-6" value="" style="ellipse;whiteSpace=wrap;html=1;aspect=fixed;fillColor=#FF9933;opacity=50;gradientColor=none;" vertex="1" parent="1">
          <mxGeometry x="130" y="175" width="150" height="150" as="geometry" />
        </mxCell>
        <mxCell id="NAV_AkpfNiqwy-9ARSLc-3" value="计算量" style="text;html=1;resizable=0;autosize=1;align=center;verticalAlign=middle;points=[];fillColor=none;strokeColor=none;rounded=0;" vertex="1" parent="1">
          <mxGeometry x="160" y="240" width="50" height="20" as="geometry" />
        </mxCell>
        <mxCell id="NAV_AkpfNiqwy-9ARSLc-4" value="&lt;font style=&quot;font-size: 11px&quot;&gt;等待&lt;/font&gt;" style="text;html=1;resizable=0;autosize=1;align=center;verticalAlign=middle;points=[];fillColor=none;strokeColor=none;rounded=0;fontSize=13;" vertex="1" parent="1">
          <mxGeometry x="90" y="240" width="40" height="20" as="geometry" />
        </mxCell>
        <mxCell id="NAV_AkpfNiqwy-9ARSLc-7" value="&lt;font style=&quot;font-size: 11px&quot;&gt;调度&lt;/font&gt;" style="text;html=1;resizable=0;autosize=1;align=center;verticalAlign=middle;points=[];fillColor=none;strokeColor=none;rounded=0;fontSize=13;" vertex="1" parent="1">
          <mxGeometry x="240" y="240" width="40" height="20" as="geometry" />
        </mxCell>
        <mxCell id="NAV_AkpfNiqwy-9ARSLc-8" value="耗时" style="text;html=1;resizable=0;autosize=1;align=center;verticalAlign=middle;points=[];fillColor=none;strokeColor=none;rounded=0;fontSize=20;opacity=50;fontColor=#3399FF;fontStyle=1" vertex="1" parent="1">
          <mxGeometry x="30" y="235" width="60" height="30" as="geometry" />
        </mxCell>
        <mxCell id="NAV_AkpfNiqwy-9ARSLc-9" value="能耗" style="text;html=1;resizable=0;autosize=1;align=center;verticalAlign=middle;points=[];fillColor=none;strokeColor=none;rounded=0;fontSize=20;opacity=50;fontColor=#FF8000;fontStyle=1" vertex="1" parent="1">
          <mxGeometry x="280" y="235" width="60" height="30" as="geometry" />
        </mxCell>
      </root>
    </mxGraphModel>
  </diagram>
</mxfile>
